<svg width="28" height="29" viewBox="0 0 28 29" fill="none" xmlns="http://www.w3.org/2000/svg">
<path d="M19.1633 20.513C19.1527 20.4826 19.1362 20.4545 19.1147 20.4305C19.0932 20.4065 19.0672 20.387 19.0381 20.3731C19.0091 20.3592 18.9775 20.3513 18.9453 20.3496C18.9132 20.348 18.881 20.3528 18.8507 20.3637C18.3957 20.5247 17.9197 20.6145 17.4378 20.6308C17.1683 20.6604 16.8956 20.6279 16.6406 20.5359C16.3855 20.444 16.1548 20.2949 15.9662 20.1002C15.7775 19.9055 15.6359 19.6702 15.5521 19.4124C15.4682 19.1545 15.4444 18.8809 15.4825 18.6125C15.4841 18.6009 15.4849 18.5892 15.4848 18.5775V12.26H19.3197C19.3815 12.26 19.4409 12.2354 19.4846 12.1917C19.5284 12.1479 19.553 12.0886 19.553 12.0267V9.44133C19.553 9.37945 19.5284 9.3201 19.4846 9.27634C19.4409 9.23258 19.3815 9.208 19.3197 9.208H15.4848V4.23333C15.4848 4.17145 15.4602 4.1121 15.4165 4.06834C15.3727 4.02458 15.3134 4 15.2515 4H12.5145C12.476 4.00265 12.4399 4.01976 12.4135 4.04789C12.3871 4.07602 12.3724 4.11309 12.3722 4.15167C12.3099 5.32863 11.9143 6.46362 11.2314 7.42419C10.5484 8.38477 9.60637 9.1313 8.51515 9.57667C8.47117 9.59422 8.43339 9.62443 8.4066 9.66348C8.37981 9.70253 8.36521 9.74865 8.36465 9.796V12.0267C8.36465 12.155 8.46965 12.26 8.59799 12.26H10.3993V18.9123C10.3993 21.1803 12.077 24.4155 16.501 24.3443C17.915 24.3443 19.483 23.7622 19.9602 23.243C19.9832 23.2161 19.9985 23.1835 20.0047 23.1486C20.0109 23.1137 20.0076 23.0778 19.9952 23.0447L19.1633 20.5142V20.513Z" fill="#B1B1B1"/>
</svg>
