<svg width="29" height="28" viewBox="0 0 29 28" fill="none" xmlns="http://www.w3.org/2000/svg">
<g clip-path="url(#clip0_1_59)">
<path d="M15.164 0.0488281C9.5526 0.0488281 4.00772 3.78945 4.00772 9.84358C4.00772 13.6936 6.17335 15.8811 7.48585 15.8811C8.02747 15.8811 8.33897 14.3717 8.33897 13.9456C8.33897 13.4372 7.0431 12.354 7.0431 10.2373C7.0431 5.84045 10.39 2.72283 14.7212 2.72283C18.4452 2.72283 21.2015 4.83945 21.2015 8.72795C21.2015 11.6321 20.0368 17.079 16.263 17.079C14.9015 17.079 13.736 16.0946 13.736 14.6841C13.736 12.6165 15.1797 10.6153 15.1797 8.48208C15.1797 4.8622 10.0443 5.51845 10.0443 9.89345C10.0443 10.8122 10.159 11.829 10.5693 12.6663C9.81422 15.9152 8.27247 20.7548 8.27247 24.1017C8.27247 25.1351 8.42035 26.1527 8.51835 27.1861C8.70385 27.3943 8.6111 27.3725 8.89547 27.2683C11.6517 23.4945 11.5537 22.7568 12.8006 17.8183C13.4735 19.0985 15.2121 19.7871 16.5902 19.7871C22.3976 19.7871 25.0068 14.1267 25.0068 9.02458C25.0068 3.59433 20.3142 0.0505781 15.1631 0.0505781L15.164 0.0488281Z" fill="#B1B1B1"/>
</g>
<defs>
<clipPath id="clip0_1_59">
<rect width="28.9991" height="27.2966" fill="white" transform="translate(0.00772095 0.0488281)"/>
</clipPath>
</defs>
</svg>
