<svg width="25" height="28" viewBox="0 0 25 28" fill="none" xmlns="http://www.w3.org/2000/svg">
<path d="M13.9859 25.7359C13.3023 26.4195 12.1922 26.4195 11.5086 25.7359L2.75859 16.9859C2.075 16.3023 2.075 15.1922 2.75859 14.5086C3.44218 13.825 4.55234 13.825 5.23593 14.5086L12.75 22.0227L20.2641 14.5141C20.9477 13.8305 22.0578 13.8305 22.7414 14.5141C23.425 15.1977 23.425 16.3078 22.7414 16.9914L13.9914 25.7414L13.9859 25.7359ZM22.7359 6.48594L13.9859 15.2359C13.3023 15.9195 12.1922 15.9195 11.5086 15.2359L2.75859 6.48594C2.075 5.80234 2.075 4.69219 2.75859 4.00859C3.44218 3.325 4.55234 3.325 5.23593 4.00859L12.75 11.5227L20.2641 4.01406C20.9477 3.33047 22.0578 3.33047 22.7414 4.01406C23.425 4.69766 23.425 5.80781 22.7414 6.49141L22.7359 6.48594Z" fill="#B1B1B1"/>
</svg>
