<svg width="72" height="72" viewBox="0 0 72 72" fill="none" xmlns="http://www.w3.org/2000/svg">
<path d="M54 21H39C38.2044 21 37.4413 21.3161 36.8787 21.8787C36.3161 22.4413 36 23.2044 36 24C36 24.7956 36.3161 25.5587 36.8787 26.1213C37.4413 26.6839 38.2044 27 39 27H54C54.7956 27 55.5587 26.6839 56.1213 26.1213C56.6839 25.5587 57 24.7956 57 24C57 23.2044 56.6839 22.4413 56.1213 21.8787C55.5587 21.3161 54.7956 21 54 21ZM33 45H18C17.2043 45 16.4413 45.3161 15.8787 45.8787C15.3161 46.4413 15 47.2044 15 48C15 48.7956 15.3161 49.5587 15.8787 50.1213C16.4413 50.6839 17.2043 51 18 51H33C33.7956 51 34.5587 50.6839 35.1213 50.1213C35.6839 49.5587 36 48.7956 36 48C36 47.2044 35.6839 46.4413 35.1213 45.8787C34.5587 45.3161 33.7956 45 33 45ZM54 33H18C17.2043 33 16.4413 33.3161 15.8787 33.8787C15.3161 34.4413 15 35.2044 15 36C15 36.7956 15.3161 37.5587 15.8787 38.1213C16.4413 38.6839 17.2043 39 18 39H54C54.7956 39 55.5587 38.6839 56.1213 38.1213C56.6839 37.5587 57 36.7956 57 36C57 35.2044 56.6839 34.4413 56.1213 33.8787C55.5587 33.3161 54.7956 33 54 33Z" fill="#B1B1B1"/>
</svg>
