<svg width="29" height="28" viewBox="0 0 29 28" fill="none" xmlns="http://www.w3.org/2000/svg">
<path d="M26.3647 6.30512C25.4743 6.69899 24.5302 6.95773 23.5635 7.07279C24.5821 6.46278 25.3442 5.50332 25.7078 4.37312C24.7512 4.94246 23.7023 5.34146 22.6103 5.55729C21.876 4.77163 20.9028 4.25058 19.8418 4.07514C18.7808 3.8997 17.6916 4.0797 16.7435 4.58715C15.7954 5.09461 15.0414 5.90109 14.599 6.88122C14.1565 7.86134 14.0502 8.9602 14.2967 10.007C12.3564 9.90988 10.4583 9.40581 8.72553 8.52746C6.99276 7.64912 5.46411 6.41616 4.23883 4.90862C3.80517 5.65348 3.57728 6.50022 3.57849 7.36212C3.57849 9.05379 4.44066 10.5483 5.74849 11.4233C4.97385 11.3989 4.21625 11.1897 3.53883 10.8131V10.8726C3.53879 11.9995 3.92853 13.0917 4.64195 13.9639C5.35536 14.8362 6.34853 15.4348 7.45299 15.6583C6.73391 15.8534 5.97984 15.8821 5.24799 15.7423C5.5594 16.7122 6.16641 17.5605 6.98399 18.1683C7.80157 18.776 8.78878 19.1128 9.80733 19.1315C8.79508 19.9265 7.63603 20.5142 6.39647 20.8609C5.15691 21.2076 3.86116 21.3066 2.58333 21.1521C4.81367 22.5864 7.40995 23.3479 10.0617 23.3455C19.038 23.3455 23.945 15.9103 23.945 9.46212C23.945 9.25212 23.9403 9.03979 23.931 8.83096C24.8858 8.14071 25.7099 7.28461 26.3647 6.30512Z" fill="#B1B1B1"/>
</svg>
