<svg width="28" height="28" viewBox="0 0 28 28" fill="none" xmlns="http://www.w3.org/2000/svg">
<path d="M20.1467 6.04887C19.8698 6.04887 19.5991 6.13098 19.3689 6.28482C19.1386 6.43865 18.9592 6.6573 18.8532 6.91312C18.7473 7.16893 18.7195 7.45043 18.7736 7.722C18.8276 7.99357 18.9609 8.24303 19.1567 8.43882C19.3525 8.63462 19.602 8.76795 19.8735 8.82197C20.1451 8.87599 20.4266 8.84827 20.6824 8.7423C20.9382 8.63634 21.1569 8.4569 21.3107 8.22667C21.4646 7.99644 21.5467 7.72577 21.5467 7.44887C21.5467 7.07757 21.3992 6.72148 21.1366 6.45892C20.8741 6.19637 20.518 6.04887 20.1467 6.04887ZM25.5133 8.87221C25.4906 7.90422 25.3093 6.94651 24.9767 6.03721C24.68 5.25919 24.2183 4.5547 23.6233 3.97221C23.0456 3.3742 22.3395 2.91541 21.5583 2.63054C20.6514 2.28773 19.6927 2.10229 18.7233 2.08221C17.4867 2.01221 17.09 2.01221 13.9167 2.01221C10.7433 2.01221 10.3467 2.01221 9.11 2.08221C8.14068 2.10229 7.1819 2.28773 6.275 2.63054C5.49529 2.9183 4.78976 3.37669 4.21 3.97221C3.612 4.54991 3.15321 5.25605 2.86833 6.03721C2.52552 6.94411 2.34008 7.90288 2.32 8.87221C2.25 10.1089 2.25 10.5055 2.25 13.6789C2.25 16.8522 2.25 17.2489 2.32 18.4855C2.34008 19.4549 2.52552 20.4136 2.86833 21.3205C3.15321 22.1017 3.612 22.8078 4.21 23.3855C4.78976 23.9811 5.49529 24.4394 6.275 24.7272C7.1819 25.07 8.14068 25.2555 9.11 25.2755C10.3467 25.3455 10.7433 25.3455 13.9167 25.3455C17.09 25.3455 17.4867 25.3455 18.7233 25.2755C19.6927 25.2555 20.6514 25.07 21.5583 24.7272C22.3395 24.4423 23.0456 23.9835 23.6233 23.3855C24.2209 22.8052 24.6831 22.1001 24.9767 21.3205C25.3093 20.4112 25.4906 19.4535 25.5133 18.4855C25.5133 17.2489 25.5833 16.8522 25.5833 13.6789C25.5833 10.5055 25.5833 10.1089 25.5133 8.87221ZM23.4133 18.3455C23.4048 19.0861 23.2707 19.8199 23.0167 20.5155C22.8304 21.0233 22.5312 21.482 22.1417 21.8572C21.7633 22.2428 21.3054 22.5414 20.8 22.7322C20.1043 22.9863 19.3706 23.1204 18.63 23.1289C17.4633 23.1872 17.0317 23.1989 13.9633 23.1989C10.895 23.1989 10.4633 23.1989 9.29667 23.1289C8.52771 23.1433 7.76203 23.0249 7.03333 22.7789C6.55008 22.5783 6.11325 22.2805 5.75 21.9039C5.36277 21.5291 5.06732 21.0699 4.88667 20.5622C4.60183 19.8566 4.44385 19.1061 4.42 18.3455C4.42 17.1789 4.35 16.7472 4.35 13.6789C4.35 10.6105 4.35 10.1789 4.42 9.01221C4.42523 8.25511 4.56344 7.50481 4.82833 6.79554C5.03372 6.3031 5.34898 5.86414 5.75 5.51221C6.10445 5.11107 6.5425 4.79249 7.03333 4.57887C7.74448 4.32226 8.494 4.18813 9.25 4.18221C10.4167 4.18221 10.8483 4.11221 13.9167 4.11221C16.985 4.11221 17.4167 4.11221 18.5833 4.18221C19.3239 4.1907 20.0577 4.32483 20.7533 4.57887C21.2835 4.77563 21.7593 5.09553 22.1417 5.51221C22.524 5.87058 22.8227 6.30873 23.0167 6.79554C23.276 7.50596 23.4102 8.25595 23.4133 9.01221C23.4717 10.1789 23.4833 10.6105 23.4833 13.6789C23.4833 16.7472 23.4717 17.1789 23.4133 18.3455ZM13.9167 7.69387C12.7334 7.69618 11.5775 8.04915 10.5948 8.70819C9.61207 9.36724 8.84677 10.3028 8.39557 11.3966C7.94437 12.4904 7.82751 13.6934 8.05976 14.8536C8.29201 16.0138 8.86294 17.0792 9.70042 17.915C10.5379 18.7509 11.6043 19.3197 12.765 19.5497C13.9257 19.7797 15.1284 19.6605 16.2214 19.2072C17.3143 18.7538 18.2484 17.9867 18.9055 17.0027C19.5626 16.0188 19.9133 14.8621 19.9133 13.6789C19.9149 12.8915 19.7607 12.1116 19.4598 11.384C19.1588 10.6564 18.717 9.99548 18.1597 9.43927C17.6024 8.88305 16.9406 8.4425 16.2124 8.14296C15.4843 7.84342 14.704 7.6908 13.9167 7.69387ZM13.9167 17.5639C13.1483 17.5639 12.3972 17.336 11.7583 16.9091C11.1194 16.4822 10.6214 15.8755 10.3274 15.1656C10.0333 14.4557 9.95641 13.6746 10.1063 12.9209C10.2562 12.1673 10.6262 11.4751 11.1696 10.9318C11.7129 10.3884 12.4051 10.0184 13.1587 9.86852C13.9124 9.71862 14.6935 9.79555 15.4034 10.0896C16.1133 10.3836 16.72 10.8816 17.1469 11.5205C17.5738 12.1594 17.8017 12.9105 17.8017 13.6789C17.8017 14.1891 17.7012 14.6942 17.5059 15.1656C17.3107 15.6369 17.0245 16.0652 16.6638 16.426C16.303 16.7867 15.8747 17.0729 15.4034 17.2681C14.932 17.4634 14.4269 17.5639 13.9167 17.5639Z" fill="#B1B1B1"/>
</svg>
