<svg width="42" height="30" viewBox="0 0 42 30" fill="none" xmlns="http://www.w3.org/2000/svg">
<path d="M39 0H24C23.2044 0 22.4413 0.316071 21.8787 0.87868C21.3161 1.44129 21 2.20435 21 3C21 3.79565 21.3161 4.55871 21.8787 5.12132C22.4413 5.68393 23.2044 6 24 6H39C39.7956 6 40.5587 5.68393 41.1213 5.12132C41.6839 4.55871 42 3.79565 42 3C42 2.20435 41.6839 1.44129 41.1213 0.87868C40.5587 0.316071 39.7956 0 39 0ZM18 24H3C2.20435 24 1.44129 24.3161 0.878681 24.8787C0.316071 25.4413 0 26.2044 0 27C0 27.7956 0.316071 28.5587 0.878681 29.1213C1.44129 29.6839 2.20435 30 3 30H18C18.7956 30 19.5587 29.6839 20.1213 29.1213C20.6839 28.5587 21 27.7956 21 27C21 26.2044 20.6839 25.4413 20.1213 24.8787C19.5587 24.3161 18.7956 24 18 24ZM39 12H3C2.20435 12 1.44129 12.3161 0.878681 12.8787C0.316071 13.4413 0 14.2044 0 15C0 15.7956 0.316071 16.5587 0.878681 17.1213C1.44129 17.6839 2.20435 18 3 18H39C39.7956 18 40.5587 17.6839 41.1213 17.1213C41.6839 16.5587 42 15.7956 42 15C42 14.2044 41.6839 13.4413 41.1213 12.8787C40.5587 12.3161 39.7956 12 39 12Z" fill="#B1B1B1"/>
</svg>
